<svg width="18" height="17" viewBox="0 0 18 17" fill="none" xmlns="http://www.w3.org/2000/svg">
<path d="M10.9884 7.71875L4.07031 6.5V15.5056C4.07023 15.6035 4.08947 15.7004 4.12693 15.7909C4.16438 15.8813 4.21932 15.9635 4.28859 16.0326C4.35786 16.1018 4.4401 16.1566 4.5306 16.1939C4.62109 16.2312 4.71806 16.2502 4.81594 16.25H16.7534C16.8514 16.2504 16.9485 16.2315 17.0392 16.1942C17.1298 16.157 17.2122 16.1022 17.2816 16.033C17.351 15.9639 17.406 15.8817 17.4436 15.7912C17.4811 15.7006 17.5004 15.6036 17.5003 15.5056V12.1875L10.9884 7.71875Z" fill="#185C37"/>
<path d="M10.9884 2.36432e-06H4.81594C4.71806 -0.00024443 4.62109 0.0188319 4.5306 0.0561374C4.4401 0.093443 4.35786 0.148244 4.28859 0.217398C4.21932 0.286553 4.16438 0.3687 4.12693 0.459131C4.08947 0.549561 4.07023 0.646496 4.07031 0.744377V4.0625L10.9884 8.125L14.6516 9.34375L17.5003 8.125V4.0625L10.9884 2.36432e-06Z" fill="#21A366"/>
<path d="M4.07031 4.0625H10.9884V8.125H4.07031V4.0625Z" fill="#107C41"/>
<path opacity="0.1" d="M9.02156 3.25H4.07031V13.4062H9.02156C9.21885 13.4053 9.40781 13.3266 9.5475 13.1873C9.68718 13.0479 9.76634 12.8592 9.76781 12.6619V3.99437C9.76634 3.79709 9.68718 3.60833 9.5475 3.46899C9.40781 3.32966 9.21885 3.25098 9.02156 3.25Z" fill="black"/>
<path opacity="0.2" d="M8.61469 3.65625H4.07031V13.8125H8.61469C8.81198 13.8115 9.00094 13.7328 9.14062 13.5935C9.2803 13.4542 9.35946 13.2654 9.36094 13.0681V4.40062C9.35946 4.20334 9.2803 4.01458 9.14062 3.87524C9.00094 3.73591 8.81198 3.65723 8.61469 3.65625Z" fill="black"/>
<path opacity="0.2" d="M8.61469 3.65625H4.07031V13H8.61469C8.81198 12.999 9.00094 12.9203 9.14062 12.781C9.2803 12.6417 9.35946 12.4529 9.36094 12.2556V4.40062C9.35946 4.20334 9.2803 4.01458 9.14062 3.87524C9.00094 3.73591 8.81198 3.65723 8.61469 3.65625Z" fill="black"/>
<path opacity="0.2" d="M8.20781 3.65625H4.07031V13H8.20781C8.4051 12.999 8.59406 12.9203 8.73375 12.781C8.87343 12.6417 8.95259 12.4529 8.95406 12.2556V4.40062C8.95259 4.20334 8.87343 4.01458 8.73375 3.87524C8.59406 3.73591 8.4051 3.65723 8.20781 3.65625Z" fill="black"/>
<path d="M0.74625 3.65625H8.2075C8.40514 3.65609 8.59477 3.7344 8.7347 3.87398C8.87463 4.01356 8.95342 4.20299 8.95375 4.40063V11.8494C8.95342 12.047 8.87463 12.2364 8.7347 12.376C8.59477 12.5156 8.40514 12.5939 8.2075 12.5938H0.74625C0.648317 12.5941 0.551283 12.5751 0.460717 12.5378C0.370151 12.5005 0.287838 12.4457 0.218501 12.3766C0.149164 12.3074 0.0941696 12.2252 0.0566733 12.1348C0.0191769 12.0443 -8.25847e-05 11.9473 2.66173e-07 11.8494V4.40063C-8.25847e-05 4.3027 0.0191769 4.20571 0.0566733 4.11524C0.0941696 4.02477 0.149164 3.94259 0.218501 3.87343C0.287838 3.80427 0.370151 3.74948 0.460717 3.71221C0.551283 3.67494 0.648317 3.65592 0.74625 3.65625Z" fill="url(#paint0_linear_44_221)"/>
<path d="M2.3125 10.5456L3.88188 8.1181L2.44437 5.70435H3.59875L4.38312 7.24997C4.45562 7.39622 4.50813 7.50497 4.53188 7.57747H4.5425C4.59375 7.46039 4.64792 7.34664 4.705 7.23622L5.54375 5.70685H6.60625L5.13188 8.10685L6.64375 10.5475H5.51313L4.60688 8.8531C4.56492 8.78019 4.52917 8.70387 4.5 8.62497H4.485C4.45851 8.70187 4.42328 8.77548 4.38 8.84435L3.44688 10.5456H2.3125Z" fill="white"/>
<path d="M16.7539 4.20297e-06H10.9883V4.0625H17.5002V0.744379C17.5002 0.646445 17.481 0.549459 17.4435 0.458988C17.406 0.368516 17.351 0.286341 17.2817 0.217178C17.2123 0.148016 17.13 0.0932276 17.0394 0.055959C16.9489 0.0186903 16.8518 -0.000325022 16.7539 4.20297e-06Z" fill="#33C481"/>
<path d="M10.9883 8.125H17.5002V12.1875H10.9883V8.125Z" fill="#107C41"/>
<defs>
<linearGradient id="paint0_linear_44_221" x1="1.55875" y1="3.07125" x2="7.395" y2="13.1788" gradientUnits="userSpaceOnUse">
<stop stop-color="#18884F"/>
<stop offset="0.5" stop-color="#117E43"/>
<stop offset="1" stop-color="#0B6631"/>
</linearGradient>
</defs>
</svg>
