<svg width="21" height="20" viewBox="0 0 21 20" fill="none" xmlns="http://www.w3.org/2000/svg">
<path d="M19.3208 19.0002L14.9005 14.6572M14.9005 14.6572C15.6566 13.9143 16.2564 13.0324 16.6656 12.0618C17.0748 11.0911 17.2854 10.0508 17.2854 9.00021C17.2854 7.9496 17.0748 6.90929 16.6656 5.93866C16.2564 4.96803 15.6566 4.08609 14.9005 3.34321C14.1443 2.60032 13.2467 2.01103 12.2588 1.60898C11.2709 1.20693 10.212 1 9.1427 1C8.07339 1 7.01454 1.20693 6.02663 1.60898C5.03871 2.01103 4.14106 2.60032 3.38494 3.34321C1.85789 4.84354 1 6.87842 1 9.00021C1 11.122 1.85789 13.1569 3.38494 14.6572C4.912 16.1575 6.98312 17.0004 9.1427 17.0004C11.3023 17.0004 13.3734 16.1575 14.9005 14.6572Z" stroke="black" stroke-width="2" stroke-linecap="round" stroke-linejoin="round"/>
</svg>
